# xmcd
#
# Track frame offsets:
#	150
#	11968
#	25969
#	38193
#	51127
#	61960
#	77555
#	89083
#	101157
#	123254
#	137000
#	155989
#	165044
#	181819
#	195715
#	208105
#	219523
#	230640
#	236429
#	250547
#	259207
#	274714
#	287328
#	300055
#	310545
#	316637
#
# Disc length: 4431 seconds
#
# Revision: 0
# Processed by: cddbd v1.5.2PL0 Copyright (c) Steve Scherf et al.
# Submitted via: EasyCDDAExtractor 16.0.8.2
#
DISCID=5a114d1a
DTITLE=Los De Ramón - Lo mejor De Los De Ramón
DYEAR=2005
DGENRE=Folklore
TTITLE0=El Curanto
TTITLE1=El Indiecito Del Chillador.
TTITLE2=La Señora
TTITLE3=El Huaso Manuel Rodriguez
TTITLE4=La Mamita Vieja
TTITLE5=Pedrito Manuel
TTITLE6=El Cartero Ciego
TTITLE7=El Amor Del Arriero
TTITLE8=Los Tres Pañuelos
TTITLE9=La Mula Rosilla
TTITLE10=Madrecita De Los Pobres
TTITLE11=El Huachito Don Bernardo
TTITLE12=Vientos Del Tamarugal
TTITLE13=Rosa Colorada
TTITLE14=Buenos Dias Dulce Leño
TTITLE15=La Barca De Madera
TTITLE16=La Libelula
TTITLE17=El Aceitunero
TTITLE18=Agachate Corazón
TTITLE19=Sin Compromiso (Si me Dices Que me Quieres) 
TTITLE20=El Chinche
TTITLE21=Camino De Soledad
TTITLE22=Ailiñ Piuque
TTITLE23=La Pincoya
TTITLE24=El Zorro Chilote
TTITLE25=Sendero Del Viento
EXTD=
EXTT0=
EXTT1=
EXTT2=
EXTT3=
EXTT4=
EXTT5=
EXTT6=
EXTT7=
EXTT8=
EXTT9=
EXTT10=
EXTT11=
EXTT12=
EXTT13=
EXTT14=
EXTT15=
EXTT16=
EXTT17=
EXTT18=
EXTT19=
EXTT20=
EXTT21=
EXTT22=
EXTT23=
EXTT24=
EXTT25=
PLAYORDER=
